<svg xmlns="http://www.w3.org/2000/svg" xmlns:xlink="http://www.w3.org/1999/xlink" height="128" width="24"><defs><symbol id="a"><path d="M8 4a2 2 0 102 2 2 2 0 00-2-2zm0 3.13A1.13 1.13 0 119.13 6 1.13 1.13 0 018 7.13zM8 1a5 5 0 00-5 5 5.37 5.37 0 00.41 2s2.5 5 3.81 7.52A.86.86 0 008 16a.86.86 0 00.78-.48C10.09 13 12.59 8 12.59 8A5.37 5.37 0 0013 6a5 5 0 00-5-5zm2.88 6.24L8 12.92 5.12 7.24A3.49 3.49 0 014.88 6a3.13 3.13 0 016.25 0 3.49 3.49 0 01-.25 1.24z"/></symbol><symbol id="b"><path d="M12 6c-1.7 0-3 1.3-3 3s1.3 3 3 3 3-1.3 3-3-1.3-3-3-3zm0 5.1c-1.2 0-2.1-1-2.1-2.1 0-1.2 1-2.1 2.1-2.1 1.2 0 2.1 1 2.1 2.1 0 1.2-.9 2.1-2.1 2.1zm0-7.2c2.8 0 5.1 2.3 5.1 5.1 0 .7-.2 1.5-.5 2.2L12 20l-4.6-8.8c-.4-.7-.5-1.5-.5-2.2 0-2.8 2.3-5.1 5.1-5.1M12 2C8.1 2 5 5.1 5 9c0 1 .2 2.1.7 3l5.6 10.5c.2.4.7.6 1.2.4.2-.1.3-.2.4-.4L18.3 12c1.7-3.5.2-7.7-3.3-9.3-.9-.5-2-.7-3-.7z"/></symbol></defs><use xlink:href="#a" fill="#fff" stroke-opacity="0"/><use xlink:href="#a" y="16"/><use xlink:href="#a" y="32" fill-opacity=".6"/><use xlink:href="#b" y="48" fill="#fff" stroke-opacity="0"/><use xlink:href="#b" y="72"/><use xlink:href="#b" y="96" fill-opacity=".6"/></svg>